<?xml version="1.0" encoding="UTF-8"?>
<svg xmlns="http://www.w3.org/2000/svg" version="1.1" viewBox="0 0 556.68 566.19">
  <defs>
    <clipPath id="rigo-head-clip">
      <circle fill="none" cx="278.34" cy="283.01" r="278.34"/>
    </clipPath>
  </defs>
  <g clip-path="url(#rigo-head-clip)">
    <path fill="none" stroke="#fff" stroke-miterlimit="10" stroke-width="5" d="M1047.73,540.9l-17.76-29.87-2.37.33c6.08,29.23,17.8,57.24,25.81,85.73.55,1.97,1.67,5.17-1.58,4.61l-12.21-24.29-1.81,4.83,26.13,92.44-21.79-42.06-2.39.36,40.4,116.7c-52.63-16.52-77.26-77.28-83.1-127.68l-4.01,20.24c-6.59-28.28-13.47-57.11-16.23-86.14-3.34-35.12,3.79-68.56-8.7-102.78l-7.51-17.79c.57,11.55-2.56,22.91-5.57,33.96-14.16,52.05-47.32,85.24-31.61,144.05,5.93,22.2,20.26,26.52,18.99,52.09-1,20.13-11.74,41.48-14.23,62.79-1.65,14.12-2.98,38.7-2.14,52.75.99,16.59,6.06,30.59,3.91,48.34-2.12,17.51-18.15,26.69-17.01,46.92.37,6.56,8,25.05-.98,30.35-5.97,3.52-52.75-.18-54.6-6.34,1.62-7.92,2.45-17.02,5.53-24.48,3.42-8.28,12.64-13.53,14.16-20.3,1.56-6.93-.51-14.71.6-21.7,7-44.01,17.01-79.17,9.84-125.71-1.58-10.22-12.4-19.06-14.09-29.51-8.13,6.85-9.35,25.08-10.09,35.49-1.82,25.76,6.86,92.07-1.64,109.83-3.63,7.59-10.3,11.72-12.07,22.36-2.23,13.41,4.57,25.49.19,38.62-4.35,9.97-47.98.86-57.45-1.62,2.93-8.4,3.1-21.12,6.62-28.84,2.63-5.77,14-12.8,14.75-18.71.54-4.3-1.59-11.54-.86-18.09,1.09-9.74,5.78-20.85,7.29-31.2,4.36-29.87,7.23-68.84,2.51-98.62-1.06-6.71-20.47-37.29-25.4-45.54-4.01-6.72-33.02-54.12-36.28-54.39-14.35,6.25-32.96,10.6-48.6,11.74-31.59,2.3-72.03,3.57-103.53,2.03-9.09-.44-20.15-2.76-29.28-4.15-6.86,31.41-14.31,62.29-18.24,94.28-.94,7.64.5,15.04-.93,23.4-2.49,14.63-14.13,24.39-16.87,37.86-6.04,29.72,7.31,62.58-3.04,86.15-2.37,5.4-7.24,9.28-8.71,15.59-2.81,12.04,1.81,25.67-5.14,38.45l-39.02-1.63c-4.84,1.63-3.71,10.86-6.35,14.03-5.28,6.35-42.62-.73-51.57-4.26-1.29-1.81,3.99-22.46,5.49-25.6,3.13-6.51,13.35-13.53,17.52-20.99,5.49-9.82,7.86-26.02,9.23-37.38,4.23-34.93,1.15-96.5-4.15-131.59-1.48-9.82-8.84-25.59-11.4-37.24-4.95-22.55-6.65-61.16-13.41-79.83-2.45-6.77-10.71-14.44-14.62-21.86-17.38-32.97-7.01-75.54-19.1-108.59-4.52-12.36-31.56-42.81-41.64-53.62-4.33-4.64-24.56-25.94-28.43-26.32-11.16-1.11-25.69,10.27-37.41,13.24-6.85,1.74-18.9,1.53-24.34,4.03-11.45,5.25-17.49,35.7-38.41,40.63-16,3.77-21.87-4.46-29.55-4.45-4.04,0-10.64,7.08-17.48,6.33-21.43-2.36-38.91-31-32.61-51.12,10.19-32.56,44.23-73.36,58.11-106.05,2.46-7.97.9-20.84,4.2-28.23,4.12-9.21,37.32-29.02,37.4-31.47-6.01-4.93-24.13-23.55-40.81-34.44-19.2-12.52-24.74-37.61-31.18-45.57-1.66-2.05,1.71-2.86,1.71-2.86l68.29,33.2c-2.22-10.46-7.69-22.86-8.12-33.52-.28-6.76,2.2-12.04,1.91-17.84-.69-13.89-5.88-27.61-7.79-41.05-.35-2.49-1.07-6.47,2.84-4.85,7.75,3.21,33.02,37.24,39.18,45.96,14.72,20.84,38.49,72.13,52.04,85.78,8.77,8.83,37.69,23.7,50.31,32.79,35.82,25.81,76.17,67.09,116.93,79.68,48.51,14.98,124.52,26.92,175.34,29.37,88.54,4.27,161.71-46.21,244.03,13.38,23.1,16.72,23.53,29.06,38.65,46.47,6.95,8,21.5,16.66,30.49,26.26,31.89,34.04,54.37,81.4,64.79,126.72ZM502.51,834.79c3.49-28.6,10.92-58.35,6.08-87.13-3.08,1.88-7.44,9.53-8.53,12.71-5.67,16.4-3.08,34.07-3.58,51.11l6.04,23.32Z"/>
    <g>
      <path fill="#fff" d="M329.37,276.19c.79-1.08,2.94-34.25-1.91-36.84-4.09-2.18-7.97,2.3-9.24,3.32-3.3,2.64-6.86,5.52-10.13,7.87-7.74,5.54-30.49,21.4-34.93,23.47-2.27,1.06-2.06,2.43-3.12,2.3-4.84-14.02-14.3-22.17-29.23-23.03-16.44-.95-27.32,7.62-33.43,22.99-1.5-.66-10.63-5.45-12.13-5.68l-2.24,5.48c.65.02,10.3,3.45,10.95,3.49,1.64.09,3.02-.41,2.73,1.4-2.28,14.36,5.58,28.46,19.04,34.41,13.28,5.88,29.14,1.95,38.2-9.36,4.46-5.57,6.67-11.97,7.32-18.93,1.18-.18,1.37-5.65,4.69-7.81,4.64-3.02,10.57-6.67,15.55-10.88,2.7-2.28,12.25-8.17,19.87-14.72,3-2.58,9.32-6.87,12.56-9.4,1.07-.83,1.79,31.15,2.46,32.2,1.91,3,.82,2.73,3-.27ZM238.54,315.66c-16.42-.04-29.89-13.59-29.89-30.09,0-16.59,13.6-30.14,30.22-30.08,16.41.05,29.89,13.63,29.89,30.11,0,16.61-13.56,30.09-30.22,30.06Z"/>
      <path fill="#fff" d="M211.07,284.74c.31-11.27,8.72-22.31,18.74-25.31.81-.24,1.8.15,2.7.24-.66.67-1.19,1.64-1.99,1.96-10.25,4.09-15.88,11.6-17.08,22.56-.09.87-.88,1.66-1.34,2.48-.46-.87-.93-1.74-1.04-1.94Z"/>
      <circle fill="#fff" cx="236.28" cy="258.88" r="1.87"/>
    </g>
  </g>
</svg>
