<?xml version="1.0" encoding="UTF-8"?>
<svg xmlns="http://www.w3.org/2000/svg" version="1.1" viewBox="0 0 612 566.36">
  <path fill="none" stroke="#5F1C1F" stroke-miterlimit="10" stroke-width="10" d="M560.47,318.2l-10.42-17.53-1.39.2c3.57,17.16,10.44,33.59,15.15,50.31.33,1.16.98,3.04-.93,2.7l-7.17-14.26-1.06,2.83,15.34,54.25-12.79-24.68-1.4.21,23.71,68.49c-30.89-9.69-45.34-45.36-48.77-74.93l-2.35,11.88c-3.87-16.6-7.9-33.52-9.52-50.55-1.96-20.61,2.22-40.24-5.1-60.32l-4.41-10.44c.33,6.78-1.5,13.45-3.27,19.93-8.31,30.55-27.77,50.03-18.55,84.54,3.48,13.03,11.89,15.56,11.15,30.57-.59,11.82-6.89,24.34-8.35,36.85-.97,8.29-1.75,22.71-1.26,30.96.58,9.73,3.56,17.95,2.3,28.37-1.24,10.28-10.65,15.67-9.99,27.54.22,3.85,4.7,14.7-.58,17.81-3.51,2.07-30.96-.11-32.04-3.72.95-4.65,1.44-9.99,3.25-14.37,2.01-4.86,7.42-7.94,8.31-11.91.91-4.07-.3-8.64.35-12.73,4.11-25.83,9.98-46.47,5.78-73.78-.92-6-7.28-11.19-8.27-17.32-4.77,4.02-5.49,14.72-5.92,20.83-1.07,15.12,4.02,54.03-.96,64.46-2.13,4.46-6.05,6.88-7.09,13.13-1.31,7.87,2.68,14.96.11,22.67-2.55,5.85-28.16.5-33.71-.95,1.72-4.93,1.82-12.4,3.88-16.93,1.54-3.38,8.22-7.51,8.65-10.98.32-2.52-.93-6.77-.5-10.62.64-5.71,3.39-12.24,4.28-18.31,2.56-17.53,4.24-40.4,1.47-57.88-.62-3.94-12.02-21.89-14.91-26.73-2.35-3.95-19.38-31.76-21.29-31.92-8.42,3.67-19.34,6.22-28.52,6.89-18.54,1.35-42.28,2.1-60.76,1.19-5.33-.26-11.82-1.62-17.19-2.44-4.02,18.43-8.4,36.56-10.71,55.33-.55,4.49.29,8.83-.54,13.73-1.46,8.59-8.29,14.31-9.9,22.22-3.54,17.44,4.29,36.73-1.78,50.56-1.39,3.17-4.25,5.45-5.11,9.15-1.65,7.06,1.06,15.06-3.01,22.57l-22.9-.95c-2.84.96-2.18,6.37-3.72,8.23-3.1,3.72-25.01-.43-30.27-2.5-.76-1.06,2.34-13.18,3.22-15.02,1.84-3.82,7.84-7.94,10.28-12.32,3.22-5.77,4.61-15.27,5.42-21.94,2.48-20.5.67-56.63-2.44-77.23-.87-5.77-5.19-15.02-6.69-21.86-2.91-13.23-3.9-35.89-7.87-46.85-1.44-3.97-6.29-8.48-8.58-12.83-10.2-19.35-4.12-44.34-11.21-63.73-2.65-7.25-18.52-25.13-24.44-31.47-2.54-2.72-14.41-15.22-16.68-15.45-6.55-.65-15.08,6.03-21.95,7.77-4.02,1.02-11.09.9-14.29,2.37-6.72,3.08-10.26,20.95-22.54,23.84-9.39,2.21-12.84-2.62-17.34-2.61-2.37,0-6.24,4.16-10.26,3.71-12.58-1.39-22.84-18.19-19.14-30,5.98-19.11,25.96-43.05,34.11-62.24,1.45-4.68.53-12.23,2.47-16.57,2.42-5.4,21.9-17.03,21.95-18.47-3.53-2.89-14.16-13.82-23.95-20.21-11.27-7.35-14.52-22.07-18.3-26.74-.97-1.2,1-1.68,1-1.68l40.08,19.48c-1.31-6.14-4.51-13.42-4.77-19.67-.16-3.97,1.29-7.06,1.12-10.47-.41-8.15-3.45-16.2-4.57-24.09-.21-1.46-.63-3.8,1.67-2.85,4.55,1.88,19.38,21.86,22.99,26.97,8.64,12.23,22.59,42.34,30.54,50.34,5.15,5.18,22.12,13.91,29.53,19.25,21.02,15.15,44.7,39.38,68.62,46.76,28.47,8.79,73.08,15.8,102.9,17.24,51.97,2.51,94.91-27.12,143.22,7.85,13.56,9.81,13.81,17.06,22.69,27.27,4.08,4.69,12.62,9.78,17.9,15.41,18.72,19.98,31.91,47.77,38.02,74.37ZM240.49,490.69c2.05-16.79,6.41-34.24,3.57-51.13-1.81,1.1-4.36,5.59-5.01,7.46-3.33,9.62-1.81,20-2.1,29.99l3.55,13.68Z"/>
  <g>
    <path fill="#5F1C1F" d="M140.67,162.78c.49-.67,1.82-21.15-1.18-22.75-2.53-1.35-4.92,1.42-5.71,2.05-2.04,1.63-4.24,3.41-6.26,4.86-4.78,3.42-18.84,13.22-21.57,14.5-1.4.65-1.27,1.5-1.93,1.42-2.99-8.66-8.83-13.69-18.05-14.23-10.15-.59-16.88,4.71-20.65,14.2-.92-.41-6.57-3.37-7.49-3.51l-1.38,3.38c.4.01,6.36,2.13,6.77,2.15,1.01.05,1.86-.25,1.69.86-1.41,8.87,3.45,17.58,11.76,21.26,8.2,3.63,18,1.2,23.59-5.78,2.75-3.44,4.12-7.39,4.52-11.69.73-.11.85-3.49,2.9-4.82,2.86-1.86,6.53-4.12,9.61-6.72,1.67-1.41,7.57-5.05,12.27-9.09,1.85-1.59,5.76-4.24,7.76-5.8.66-.51,1.1,19.24,1.52,19.89,1.18,1.85.51,1.69,1.85-.17ZM84.57,187.15c-10.14-.02-18.46-8.4-18.46-18.58,0-10.25,8.4-18.61,18.66-18.58,10.14.03,18.46,8.42,18.46,18.6,0,10.26-8.38,18.59-18.66,18.56Z"/>
    <path fill="#5F1C1F" d="M67.6,168.06c.19-6.96,5.38-13.78,11.57-15.63.5-.15,1.11.09,1.67.15-.41.41-.74,1.02-1.23,1.21-6.33,2.52-9.81,7.17-10.55,13.94-.06.54-.54,1.02-.83,1.53-.29-.54-.57-1.08-.64-1.2Z"/>
    <circle fill="#5F1C1F" cx="83.18" cy="152.08" r="1.15"/>
  </g>
</svg>
